HIERARCHY
ROOT Hips
{
    OFFSET 0.000000 0.000000 0.000000
    CHANNELS 6 Xposition Yposition Zposition Zrotation Xrotation Yrotation
    JOINT Spine
    {
        OFFSET -0.000000 7.305679 0.000000
        CHANNELS 3 Zrotation Xrotation Yrotation
        JOINT Spine1
        {
            OFFSET -0.000000 20.356625 0.000000
            CHANNELS 3 Zrotation Xrotation Yrotation
            JOINT Neck
            {
                OFFSET -0.000000 22.138498 0.000000
                CHANNELS 3 Zrotation Xrotation Yrotation
                JOINT Head
                {
                    OFFSET -0.000000 13.809516 1.781873
                    CHANNELS 3 Zrotation Xrotation Yrotation
                    End Site
                    {
                        OFFSET -0.000000 17.818729 0.000000
                    }
                }
            }
            JOINT LeftShoulder
            {
                OFFSET 3.599131 17.989975 0.023592
                CHANNELS 3 Zrotation Xrotation Yrotation
                JOINT LeftArm
                {
                    OFFSET 12.560995 0.000000 0.000000
                    CHANNELS 3 Zrotation Xrotation Yrotation
                    JOINT LeftForeArm
                    {
                        OFFSET 22.903347 0.000000 0.000000
                        CHANNELS 3 Zrotation Xrotation Yrotation
                        JOINT LeftHand
                        {
                            OFFSET 21.865294 0.000000 0.000000
                            CHANNELS 3 Zrotation Xrotation Yrotation
                            JOINT LeftHandThumb1
                            {
                                OFFSET 1.853706 -2.106484 2.949078
                                CHANNELS 3 Zrotation Xrotation Yrotation
                                JOINT LeftHandThumb2
                                {
                                    OFFSET 2.049154 0.000000 1.336405
                                    CHANNELS 3 Zrotation Xrotation Yrotation
                                    JOINT LeftHandThumb3
                                    {
                                        OFFSET 2.672809 0.000000 0.000000
                                        CHANNELS 3 Zrotation Xrotation Yrotation
                                        End Site
                                        {
                                            OFFSET 2.381303 0.000000 0.000000
                                        }
                                    }
                                }
                            }
                            JOINT LeftHandIndex1
                            {
                                OFFSET 7.583345 0.000000 2.949078
                                CHANNELS 3 Zrotation Xrotation Yrotation
                                JOINT LeftHandIndex2
                                {
                                    OFFSET 4.454682 0.000000 0.000000
                                    CHANNELS 3 Zrotation Xrotation Yrotation
                                    JOINT LeftHandIndex3
                                    {
                                        OFFSET 2.227341 0.000000 0.000000
                                        CHANNELS 3 Zrotation Xrotation Yrotation
                                        End Site
                                        {
                                            OFFSET 1.984419 0.000000 0.000000
                                        }
                                    }
                                }
                            }
                            JOINT LeftHandMiddle1
                            {
                                OFFSET 7.583345 0.000000 0.977409
                                CHANNELS 3 Zrotation Xrotation Yrotation
                                JOINT LeftHandMiddle2
                                {
                                    OFFSET 4.900151 0.000000 0.000000
                                    CHANNELS 3 Zrotation Xrotation Yrotation
                                    JOINT LeftHandMiddle3
                                    {
                                        OFFSET 2.672809 0.000000 0.000000
                                        CHANNELS 3 Zrotation Xrotation Yrotation
                                        End Site
                                        {
                                            OFFSET 2.381303 0.000000 0.000000
                                        }
                                    }
                                }
                            }
                            JOINT LeftHandRing1
                            {
                                OFFSET 7.162047 0.000000 -0.977409
                                CHANNELS 3 Zrotation Xrotation Yrotation
                                JOINT LeftHandRing2
                                {
                                    OFFSET 4.454682 0.000000 0.000000
                                    CHANNELS 3 Zrotation Xrotation Yrotation
                                    JOINT LeftHandRing3
                                    {
                                        OFFSET 2.227341 0.000000 0.000000
                                        CHANNELS 3 Zrotation Xrotation Yrotation
                                        End Site
                                        {
                                            OFFSET 1.984419 0.000000 0.000000
                                        }
                                    }
                                }
                            }
                            JOINT LeftHandPinky1
                            {
                                OFFSET 6.740750 0.000000 -2.949078
                                CHANNELS 3 Zrotation Xrotation Yrotation
                                JOINT LeftHandPinky2
                                {
                                    OFFSET 3.563746 0.000000 0.000000
                                    CHANNELS 3 Zrotation Xrotation Yrotation
                                    JOINT LeftHandPinky3
                                    {
                                        OFFSET 1.781873 0.000000 0.000000
                                        CHANNELS 3 Zrotation Xrotation Yrotation
                                        End Site
                                        {
                                            OFFSET 1.587536 0.000000 0.000000
                                        }
                                    }
                                }
                            }
                        }
                    }
                }
            }
            JOINT RightShoulder
            {
                OFFSET -3.506995 17.989975 0.023592
                CHANNELS 3 Zrotation Xrotation Yrotation
                JOINT RightArm
                {
                    OFFSET -12.560995 0.000000 0.000000
                    CHANNELS 3 Zrotation Xrotation Yrotation
                    JOINT RightForeArm
                    {
                        OFFSET -22.903347 0.000000 0.000000
                        CHANNELS 3 Zrotation Xrotation Yrotation
                        JOINT RightHand
                        {
                            OFFSET -21.865294 0.000000 0.000000
                            CHANNELS 3 Zrotation Xrotation Yrotation
                            JOINT RightHandThumb1
                            {
                                OFFSET -1.853706 -2.106484 2.949078
                                CHANNELS 3 Zrotation Xrotation Yrotation
                                JOINT RightHandThumb2
                                {
                                    OFFSET -2.049154 0.000000 1.336405
                                    CHANNELS 3 Zrotation Xrotation Yrotation
                                    JOINT RightHandThumb3
                                    {
                                        OFFSET -2.672809 0.000000 0.000000
                                        CHANNELS 3 Zrotation Xrotation Yrotation
                                        End Site
                                        {
                                            OFFSET -2.381303 0.000000 0.000000
                                        }
                                    }
                                }
                            }
                            JOINT RightHandIndex1
                            {
                                OFFSET -7.583345 0.000000 2.949078
                                CHANNELS 3 Zrotation Xrotation Yrotation
                                JOINT RightHandIndex2
                                {
                                    OFFSET -4.454682 0.000000 0.000000
                                    CHANNELS 3 Zrotation Xrotation Yrotation
                                    JOINT RightHandIndex3
                                    {
                                        OFFSET -2.227341 0.000000 0.000000
                                        CHANNELS 3 Zrotation Xrotation Yrotation
                                        End Site
                                        {
                                            OFFSET -1.984419 0.000000 0.000000
                                        }
                                    }
                                }
                            }
                            JOINT RightHandMiddle1
                            {
                                OFFSET -7.583345 0.000000 0.977409
                                CHANNELS 3 Zrotation Xrotation Yrotation
                                JOINT RightHandMiddle2
                                {
                                    OFFSET -4.900151 0.000000 0.000000
                                    CHANNELS 3 Zrotation Xrotation Yrotation
                                    JOINT RightHandMiddle3
                                    {
                                        OFFSET -2.672809 0.000000 0.000000
                                        CHANNELS 3 Zrotation Xrotation Yrotation
                                        End Site
                                        {
                                            OFFSET -2.381303 0.000000 0.000000
                                        }
                                    }
                                }
                            }
                            JOINT RightHandRing1
                            {
                                OFFSET -7.162047 0.000000 -0.977409
                                CHANNELS 3 Zrotation Xrotation Yrotation
                                JOINT RightHandRing2
                                {
                                    OFFSET -4.454682 0.000000 0.000000
                                    CHANNELS 3 Zrotation Xrotation Yrotation
                                    JOINT RightHandRing3
                                    {
                                        OFFSET -2.227341 0.000000 0.000000
                                        CHANNELS 3 Zrotation Xrotation Yrotation
                                        End Site
                                        {
                                            OFFSET -1.984419 0.000000 0.000000
                                        }
                                    }
                                }
                            }
                            JOINT RightHandPinky1
                            {
                                OFFSET -6.740750 0.000000 -2.949078
                                CHANNELS 3 Zrotation Xrotation Yrotation
                                JOINT RightHandPinky2
                                {
                                    OFFSET -3.563746 0.000000 0.000000
                                    CHANNELS 3 Zrotation Xrotation Yrotation
                                    JOINT RightHandPinky3
                                    {
                                        OFFSET -1.781873 0.000000 0.000000
                                        CHANNELS 3 Zrotation Xrotation Yrotation
                                        End Site
                                        {
                                            OFFSET -1.587536 0.000000 0.000000
                                        }
                                    }
                                }
                            }
                        }
                    }
                }
            }
        }
    }
    JOINT LeftUpLeg
    {
        OFFSET 8.909365 0.000000 0.000000
        CHANNELS 3 Zrotation Xrotation Yrotation
        JOINT LeftLeg
        {
            OFFSET -0.000000 -38.765560 0.000000
            CHANNELS 3 Zrotation Xrotation Yrotation
            JOINT LeftFoot
            {
                OFFSET -0.000000 -35.244961 0.000000
                CHANNELS 3 Zrotation Xrotation Yrotation
                JOINT LeftToeBase
                {
                    OFFSET -0.000000 -5.791087 13.364048
                    CHANNELS 3 Zrotation Xrotation Yrotation
                    End Site
                    {
                        OFFSET -0.000000 0.000000 3.563746
                    }
                }
            }
        }
    }
    JOINT RightUpLeg
    {
        OFFSET -8.909365 0.000000 0.000000
        CHANNELS 3 Zrotation Xrotation Yrotation
        JOINT RightLeg
        {
            OFFSET -0.000000 -38.765560 0.000000
            CHANNELS 3 Zrotation Xrotation Yrotation
            JOINT RightFoot
            {
                OFFSET -0.000000 -35.244961 0.000000
                CHANNELS 3 Zrotation Xrotation Yrotation
                JOINT RightToeBase
                {
                    OFFSET -0.000000 -5.791087 13.364048
                    CHANNELS 3 Zrotation Xrotation Yrotation
                    End Site
                    {
                        OFFSET -0.000000 0.000000 3.563746
                    }
                }
            }
        }
    }
}
MOTION
Frames:    5
Frame Time:    0.033333
-7.004216    81.353088    104.971504    1.027682    -0.396319    -0.849298    0.611179    -0.045304    0.186663    -1.643305    1.986071    0.091243    1.447322    -1.765886    1.118283    1.509778    0.430017    1.125445    1.247621    2.371866    -12.988448    -87.589607    27.399372    0.260723    9.404382    -7.384502    0.351839    -0.255225    -29.403776    13.008830    -1.248990    -1.189016    -2.960579    0.000000    0.000000    0.000000    0.000000    0.000000    0.000000    -19.098921    3.834022    -10.929870    -38.931725    0.000000    0.000000    -19.465860    0.000000    0.000000    -27.934298    -0.288262    -2.532065    -55.886845    0.000000    0.000000    -27.943428    0.000000    0.000000    -36.112091    -5.607818    5.169921    -72.841980    0.000000    0.000000    -36.420994    0.000000    0.000000    -43.838326    -12.132689    12.346011    -90.310890    0.000000    0.000000    -45.155445    0.000000    0.000000    -3.483247    -1.636392    1.455396    96.330902    47.470669    -9.459908    -9.873582    -28.340164    0.483711    15.570404    -45.280987    1.193548    0.105848    -1.251691    2.030278    0.000000    0.000000    0.000000    0.000000    0.000000    0.000000    11.426137    0.410921    2.032283    22.866846    0.000000    -0.000000    11.433423    0.000000    -0.000000    16.878874    -0.355804    -0.338302    33.765327    0.000000    -0.000000    16.882664    0.000000    -0.000000    22.296547    -1.343647    -2.625856    44.663803    0.000000    -0.000000    22.331896    0.000000    -0.000000    27.836325    -2.581775    -4.875797    55.892521    0.000000    -0.000000    27.946266    0.000000    -0.000000    -2.816006    3.046681    -2.199723    0.835734    -3.414697    27.090416    -0.948626    1.215056    -25.616858    0.570459    -2.700418    -1.833045    -0.206394    2.604325    -0.267071    0.559861    -1.437009    -7.681609    -0.031215    -2.270574    4.454766    -0.204730    -2.132559    0.106370    
-7.047114    81.343002    105.005440    1.045815    -0.447082    -0.726077    0.506430    -0.008119    0.134583    -1.537852    1.968222    0.072128    1.405672    -1.724622    0.946811    1.610395    0.310845    0.932170    1.208828    2.409442    -12.996760    -87.523117    27.376568    0.185517    9.402184    -7.211702    0.367528    -0.315438    -29.412176    12.916945    -1.236862    -1.180527    -2.935262    0.000000    0.000000    0.000000    0.000000    0.000000    0.000000    -18.985392    3.791193    -10.878862    -38.693058    0.000000    0.000000    -19.346529    0.000000    0.000000    -27.790268    -0.285238    -2.521072    -55.598305    0.000000    0.000000    -27.799154    0.000000    0.000000    -35.947380    -5.550115    5.150325    -72.503540    0.000000    0.000000    -36.251774    0.000000    0.000000    -43.661091    -12.012826    12.303137    -89.921066    0.000000    0.000000    -44.960533    0.000000    0.000000    -3.506837    -1.651314    1.433104    96.220322    47.319031    -9.332844    -9.869459    -28.101368    0.431533    15.649799    -45.256649    1.161073    0.111395    -1.229207    1.999044    0.000000    0.000000    0.000000    0.000000    0.000000    0.000000    11.420328    0.421338    2.084846    22.855991    0.000000    -0.000000    11.427994    0.000000    -0.000000    16.880072    -0.353913    -0.319358    33.767639    0.000000    -0.000000    16.883818    0.000000    -0.000000    22.303816    -1.353695    -2.639463    44.679272    0.000000    -0.000000    22.339642    0.000000    -0.000000    27.848717    -2.607492    -4.921529    55.921581    0.000000    -0.000000    27.960791    0.000000    -0.000000    -2.722652    3.092767    -2.438651    0.679642    -3.364970    26.712708    -0.917580    1.147345    -25.128653    0.570552    -2.711501    -1.835115    -0.173480    2.752507    -0.410000    0.523868    -1.549380    -7.805227    -0.059130    -2.265564    4.624296    -0.189163    -2.090667    0.085823    
-7.089866    81.338081    105.027603    1.052235    -0.446660    -0.605183    0.424045    -0.006329    0.104483    -1.456498    1.946446    0.061004    1.417813    -1.692934    0.759039    1.659953    0.134382    0.736037    1.183328    2.428230    -13.012514    -87.462364    27.322990    0.118611    9.372071    -7.040460    0.389564    -0.353508    -29.403008    12.825821    -1.220221    -1.179999    -2.913456    0.000000    0.000000    0.000000    0.000000    0.000000    0.000000    -18.958616    3.779342    -10.861819    -38.636112    0.000000    0.000000    -19.318058    0.000000    0.000000    -27.647896    -0.214132    -2.588075    -55.312279    0.000000    0.000000    -27.656139    0.000000    0.000000    -35.707600    -5.370412    5.021011    -71.988449    0.000000    0.000000    -35.994221    0.000000    0.000000    -43.337116    -11.702449    12.131577    -89.169945    0.000000    0.000000    -44.584972    0.000000    0.000000    -3.506557    -1.659866    1.417573    96.055611    47.085251    -9.171474    -9.799794    -27.781792    0.378860    15.685466    -45.210453    1.185479    0.128869    -1.214600    1.988160    0.000000    0.000000    0.000000    0.000000    0.000000    0.000000    11.422171    0.431200    2.133244    22.860403    0.000000    -0.000000    11.430202    0.000000    -0.000000    16.886738    -0.345915    -0.286836    33.780663    0.000000    -0.000000    16.890331    0.000000    -0.000000    22.314953    -1.349247    -2.622486    44.700920    0.000000    -0.000000    22.350458    0.000000    -0.000000    27.863964    -2.608389    -4.920058    55.952087    0.000000    -0.000000    27.976046    0.000000    -0.000000    -2.655879    3.056234    -2.608873    0.601655    -3.269725    26.480549    -0.931144    1.087772    -24.850138    0.569784    -2.719842    -1.834487    -0.130024    2.810810    -0.496565    0.495491    -1.609546    -7.900472    -0.095427    -2.255355    4.690823    -0.186345    -2.115602    0.078714    
-7.127019    81.339088    105.045128    1.060429    -0.450376    -0.479931    0.368547    0.025784    0.095862    -1.422657    1.911072    0.057076    1.475261    -1.711558    0.565449    1.681814    -0.049976    0.542327    1.184636    2.443841    -13.032036    -87.441254    27.293947    0.065816    9.367239    -6.949972    0.403565    -0.288302    -29.338039    12.946033    -1.293246    -1.161714    -2.985274    0.000000    0.000000    0.000000    0.000000    0.000000    0.000000    -19.083889    3.887487    -11.087485    -38.922707    0.000000    0.000000    -19.461349    0.000000    0.000000    -27.690426    -0.069622    -2.816602    -55.396557    0.000000    0.000000    -27.698288    0.000000    0.000000    -35.671192    -5.178699    4.800532    -71.870438    0.000000    0.000000    -35.935215    0.000000    0.000000    -43.220798    -11.454084    11.931931    -88.843506    0.000000    0.000000    -44.421757    0.000000    0.000000    -3.492270    -1.656787    1.410696    95.943237    46.866486    -9.064811    -9.725438    -27.549044    0.348450    15.636806    -45.173931    1.201761    0.152345    -1.220038    2.012577    0.000000    0.000000    0.000000    0.000000    0.000000    0.000000    11.454720    0.439930    2.170046    22.926104    0.000000    -0.000000    11.463052    0.000000    -0.000000    16.931822    -0.337476    -0.254633    33.870468    0.000000    -0.000000    16.935238    0.000000    -0.000000    22.372459    -1.342044    -2.594610    44.814846    0.000000    -0.000000    22.407425    0.000000    -0.000000    27.934111    -2.603382    -4.896220    56.090866    0.000000    -0.000000    28.045435    0.000000    -0.000000    -2.606884    3.017840    -2.747620    0.546869    -3.170645    26.274597    -0.954805    1.032809    -24.631725    0.569282    -2.725941    -1.834186    -0.098902    2.852391    -0.544308    0.479891    -1.634349    -7.997853    -0.141385    -2.257234    4.714501    -0.186391    -2.160019    0.074151    
-7.153397    81.341690    105.066238    1.087210    -0.499036    -0.337941    0.332588    0.115627    0.093391    -1.442405    1.881639    0.055143    1.576247    -1.827898    0.381181    1.664616    -0.171938    0.366049    1.208069    2.463612    -13.068145    -87.454849    27.314501    0.033166    9.398134    -6.947896    0.414463    -0.177793    -29.255527    13.098926    -1.376978    -1.143104    -3.070490    0.000000    0.000000    0.000000    0.000000    0.000000    0.000000    -19.254135    3.979601    -11.237673    -39.291630    0.000000    0.000000    -19.645815    0.000000    0.000000    -27.958427    -0.080518    -2.850944    -55.933426    0.000000    0.000000    -27.966713    0.000000    0.000000    -36.012611    -5.319734    4.858471    -72.575203    0.000000    0.000000    -36.287601    0.000000    0.000000    -43.614960    -11.748588    12.063098    -89.721283    0.000000    0.000000    -44.860638    0.000000    0.000000    -3.473606    -1.642486    1.402341    95.971527    46.845318    -9.093069    -9.720029    -27.611580    0.369890    15.539844    -45.179924    1.143700    0.139201    -1.246002    2.044083    0.000000    0.000000    0.000000    0.000000    0.000000    0.000000    11.483205    0.443364    2.181404    22.983292    0.000000    -0.000000    11.491644    0.000000    -0.000000    16.978062    -0.337941    -0.249900    33.962952    0.000000    -0.000000    16.981478    0.000000    -0.000000    22.436165    -1.347744    -2.595793    44.942616    0.000000    -0.000000    22.471308    0.000000    -0.000000    28.015495    -2.615741    -4.902577    56.254990    0.000000    -0.000000    28.127495    0.000000    -0.000000    -2.598640    3.029460    -2.848835    0.521131    -3.080238    26.099438    -0.983638    0.987501    -24.494223    0.570043    -2.730892    -1.836985    -0.097672    2.949488    -0.625603    0.473032    -1.667142    -8.094799    -0.144999    -2.277794    4.752914    -0.186312    -2.158270    0.074207    
